<?xml version="1.0" encoding="UTF-8" standalone="no"?>
<!DOCTYPE svg PUBLIC "-//W3C//DTD SVG 1.1//EN"
 "http://www.w3.org/Graphics/SVG/1.1/DTD/svg11.dtd">
<!-- Generated by graphviz version 9.0.0 (20230911.1827)
 -->
<!-- Title: DeSERT Hybrid Single&#45;Queue Pages: 1 -->
<svg width="1162pt" height="506pt"
 viewBox="0.00 0.00 1161.90 506.00" xmlns="http://www.w3.org/2000/svg" xmlns:xlink="http://www.w3.org/1999/xlink">
<g id="graph0" class="graph" transform="scale(1 1) rotate(0) translate(144 362)">
<title>DeSERT Hybrid Single&#45;Queue</title>
<polygon fill="white" stroke="none" points="-144,144 -144,-362 1017.9,-362 1017.9,144 -144,144"/>
<text text-anchor="middle" x="436.95" y="-10.75" font-family="Sans-Serif" font-size="15.00" fill="#2d3436">DeSERT Hybrid Single&#45;Queue</text>
<g id="clust1" class="cluster">
<title>cluster_PatientStream</title>
<polygon fill="white" stroke="#aeb6be" stroke-dasharray="5,2" points="8,-37 8,-210 227.2,-210 227.2,-37 8,-37"/>
<text text-anchor="middle" x="56.88" y="-194.6" font-family="Sans-Serif" font-size="12.00" fill="#2d3436">PatientStream</text>
</g>
<g id="clust2" class="cluster">
<title>cluster_DoctorQueue</title>
<polygon fill="white" stroke="#aeb6be" stroke-dasharray="5,2" points="646.7,-37 646.7,-210 865.9,-210 865.9,-37 646.7,-37"/>
<text text-anchor="middle" x="693.33" y="-194.6" font-family="Sans-Serif" font-size="12.00" fill="#2d3436">DoctorQueue</text>
</g>
<!-- 0ac4a2be533943b4a5b991ef67794c19 -->
<g id="node1" class="node">
<title>0ac4a2be533943b4a5b991ef67794c19</title>
<path fill="#104e8b" stroke="black" d="M199.2,-168.6C199.2,-168.6 36,-168.6 36,-168.6 30,-168.6 24,-162.6 24,-156.6 24,-156.6 24,-65.4 24,-65.4 24,-59.4 30,-53.4 36,-53.4 36,-53.4 199.2,-53.4 199.2,-53.4 205.2,-53.4 211.2,-59.4 211.2,-65.4 211.2,-65.4 211.2,-156.6 211.2,-156.6 211.2,-162.6 205.2,-168.6 199.2,-168.6"/>
<text text-anchor="start" x="95.48" y="-127.6" font-family="Sans-Serif" font-weight="bold" font-size="12.00" fill="white">Patient</text>
<text text-anchor="start" x="99.98" y="-118.45" font-family="Sans-Serif" font-size="9.00" fill="white">[Person]</text>
<text text-anchor="start" x="70.35" y="-95.5" font-family="Sans-Serif" font-size="10.00" fill="white">Asynchronous arrival</text>
</g>
<!-- 5eec04eb6d5d43a5994b99747f430509 -->
<g id="node2" class="node">
<title>5eec04eb6d5d43a5994b99747f430509</title>
<polygon fill="#1874cd" stroke="black" points="504.45,-147 360.45,-147 360.45,-75 504.45,-75 504.45,-147"/>
<text text-anchor="start" x="367.2" y="-111.1" font-family="Sans-Serif" font-weight="bold" font-size="12.00" fill="white">Hybrid Priority Queue</text>
<text text-anchor="start" x="408.83" y="-101.95" font-family="Sans-Serif" font-size="9.00" fill="white">[Container]</text>
</g>
<!-- 0ac4a2be533943b4a5b991ef67794c19&#45;&gt;5eec04eb6d5d43a5994b99747f430509 -->
<g id="edge1" class="edge">
<title>0ac4a2be533943b4a5b991ef67794c19&#45;&gt;5eec04eb6d5d43a5994b99747f430509</title>
<path fill="none" stroke="#999999" stroke-dasharray="5,2" d="M211.64,-111C211.64,-111 348.62,-111 348.62,-111"/>
<polygon fill="#999999" stroke="#999999" points="348.62,-114.5 358.62,-111 348.62,-107.5 348.62,-114.5"/>
<text text-anchor="start" x="238.2" y="-130" font-family="Sans-Serif" font-size="10.00" fill="#2d3436">Enters triaging queue</text>
<text text-anchor="start" x="254.33" y="-115.75" font-family="Sans-Serif" font-size="10.00" fill="#2d3436">for processing</text>
</g>
<!-- dff1591fc82b46afadc86ebd9193374f -->
<g id="node3" class="node">
<title>dff1591fc82b46afadc86ebd9193374f</title>
<path fill="#104e8b" stroke="black" d="M837.9,-168.6C837.9,-168.6 674.7,-168.6 674.7,-168.6 668.7,-168.6 662.7,-162.6 662.7,-156.6 662.7,-156.6 662.7,-65.4 662.7,-65.4 662.7,-59.4 668.7,-53.4 674.7,-53.4 674.7,-53.4 837.9,-53.4 837.9,-53.4 843.9,-53.4 849.9,-59.4 849.9,-65.4 849.9,-65.4 849.9,-156.6 849.9,-156.6 849.9,-162.6 843.9,-168.6 837.9,-168.6"/>
<text text-anchor="start" x="736.05" y="-127.6" font-family="Sans-Serif" font-weight="bold" font-size="12.00" fill="white">Doctor</text>
<text text-anchor="start" x="738.68" y="-118.45" font-family="Sans-Serif" font-size="9.00" fill="white">[Person]</text>
<text text-anchor="start" x="730.05" y="-95.5" font-family="Sans-Serif" font-size="10.00" fill="white">FCFS queue</text>
</g>
<!-- 5eec04eb6d5d43a5994b99747f430509&#45;&gt;dff1591fc82b46afadc86ebd9193374f -->
<g id="edge2" class="edge">
<title>5eec04eb6d5d43a5994b99747f430509&#45;&gt;dff1591fc82b46afadc86ebd9193374f</title>
<path fill="none" stroke="#999999" stroke-dasharray="5,2" d="M504.73,-111C504.73,-111 650.89,-111 650.89,-111"/>
<polygon fill="#999999" stroke="#999999" points="650.89,-114.5 660.89,-111 650.89,-107.5 650.89,-114.5"/>
<text text-anchor="start" x="531.45" y="-130" font-family="Sans-Serif" font-size="10.00" fill="#2d3436">Highest priority patient</text>
<text text-anchor="start" x="568.58" y="-115.75" font-family="Sans-Serif" font-size="10.00" fill="#2d3436">is seen</text>
</g>
</g>
</svg>
