<?xml version="1.0" encoding="UTF-8" standalone="no"?>
<!DOCTYPE svg PUBLIC "-//W3C//DTD SVG 1.1//EN"
 "http://www.w3.org/Graphics/SVG/1.1/DTD/svg11.dtd">
<!-- Generated by graphviz version 9.0.0 (20230911.1827)
 -->
<!-- Title: DSERT Multi&#45;Queue Pages: 1 -->
<svg width="1124pt" height="822pt"
 viewBox="0.00 0.00 1124.35 822.00" xmlns="http://www.w3.org/2000/svg" xmlns:xlink="http://www.w3.org/1999/xlink">
<g id="graph0" class="graph" transform="scale(1 1) rotate(0) translate(144 678)">
<title>DSERT Multi&#45;Queue</title>
<polygon fill="white" stroke="none" points="-144,144 -144,-678 980.35,-678 980.35,144 -144,144"/>
<text text-anchor="middle" x="418.18" y="-10.75" font-family="Sans-Serif" font-size="15.00" fill="#2d3436">DSERT Multi&#45;Queue</text>
<g id="clust1" class="cluster">
<title>cluster_PatientStream</title>
<polygon fill="white" stroke="#aeb6be" stroke-dasharray="5,2" points="8,-195 8,-368 227.2,-368 227.2,-195 8,-195"/>
<text text-anchor="middle" x="56.88" y="-352.6" font-family="Sans-Serif" font-size="12.00" fill="#2d3436">PatientStream</text>
</g>
<g id="clust2" class="cluster">
<title>cluster_MultiQueue</title>
<polygon fill="white" stroke="#aeb6be" stroke-dasharray="5,2" points="250.2,-37 250.2,-526 469.4,-526 469.4,-37 250.2,-37"/>
<text text-anchor="middle" x="291.2" y="-510.6" font-family="Sans-Serif" font-size="12.00" fill="#2d3436">MultiQueue</text>
</g>
<g id="clust3" class="cluster">
<title>cluster_DoctorQueue</title>
<polygon fill="white" stroke="#aeb6be" stroke-dasharray="5,2" points="609.15,-195 609.15,-368 828.35,-368 828.35,-195 609.15,-195"/>
<text text-anchor="middle" x="655.78" y="-352.6" font-family="Sans-Serif" font-size="12.00" fill="#2d3436">DoctorQueue</text>
</g>
<!-- f6857f416fb5439db98bc1170e6461d8 -->
<g id="node1" class="node">
<title>f6857f416fb5439db98bc1170e6461d8</title>
<path fill="#104e8b" stroke="black" d="M199.2,-326.6C199.2,-326.6 36,-326.6 36,-326.6 30,-326.6 24,-320.6 24,-314.6 24,-314.6 24,-223.4 24,-223.4 24,-217.4 30,-211.4 36,-211.4 36,-211.4 199.2,-211.4 199.2,-211.4 205.2,-211.4 211.2,-217.4 211.2,-223.4 211.2,-223.4 211.2,-314.6 211.2,-314.6 211.2,-320.6 205.2,-326.6 199.2,-326.6"/>
<text text-anchor="start" x="95.48" y="-285.6" font-family="Sans-Serif" font-weight="bold" font-size="12.00" fill="white">Patient</text>
<text text-anchor="start" x="99.98" y="-276.45" font-family="Sans-Serif" font-size="9.00" fill="white">[Person]</text>
<text text-anchor="start" x="70.35" y="-253.5" font-family="Sans-Serif" font-size="10.00" fill="white">Asynchronous arrival</text>
</g>
<!-- b583bec231284f619b739b90294891d6 -->
<g id="node2" class="node">
<title>b583bec231284f619b739b90294891d6</title>
<polygon fill="#1874cd" stroke="black" points="453.4,-484.6 266.2,-484.6 266.2,-369.4 453.4,-369.4 453.4,-484.6"/>
<text text-anchor="start" x="318.18" y="-443.6" font-family="Sans-Serif" font-weight="bold" font-size="12.00" fill="white">Queue Level 1</text>
<text text-anchor="start" x="336.18" y="-434.45" font-family="Sans-Serif" font-size="9.00" fill="white">[Container]</text>
<text text-anchor="start" x="280.68" y="-411.5" font-family="Sans-Serif" font-size="10.00" fill="white">Severity score&#45;based priority queue</text>
</g>
<!-- f6857f416fb5439db98bc1170e6461d8&#45;&gt;b583bec231284f619b739b90294891d6 -->
<g id="edge1" class="edge">
<title>f6857f416fb5439db98bc1170e6461d8&#45;&gt;b583bec231284f619b739b90294891d6</title>
<path fill="none" stroke="#999999" stroke-dasharray="5,2" d="M118.35,-326.94C118.35,-372.03 118.35,-427 118.35,-427 118.35,-427 254.24,-427 254.24,-427"/>
<polygon fill="#999999" stroke="#999999" points="254.24,-430.5 264.24,-427 254.24,-423.5 254.24,-430.5"/>
</g>
<!-- cbebe00a8d7840f681cbf9678896ac8b -->
<g id="node3" class="node">
<title>cbebe00a8d7840f681cbf9678896ac8b</title>
<polygon fill="#1874cd" stroke="black" points="453.4,-326.6 266.2,-326.6 266.2,-211.4 453.4,-211.4 453.4,-326.6"/>
<text text-anchor="start" x="318.18" y="-285.6" font-family="Sans-Serif" font-weight="bold" font-size="12.00" fill="white">Queue Level 2</text>
<text text-anchor="start" x="336.18" y="-276.45" font-family="Sans-Serif" font-size="9.00" fill="white">[Container]</text>
<text text-anchor="start" x="279.18" y="-253.5" font-family="Sans-Serif" font-size="10.00" fill="white">FCFS queue based on time&#45;of&#45;arrival</text>
</g>
<!-- f6857f416fb5439db98bc1170e6461d8&#45;&gt;cbebe00a8d7840f681cbf9678896ac8b -->
<g id="edge2" class="edge">
<title>f6857f416fb5439db98bc1170e6461d8&#45;&gt;cbebe00a8d7840f681cbf9678896ac8b</title>
<path fill="none" stroke="#999999" stroke-dasharray="5,2" d="M211.59,-269C211.59,-269 254.35,-269 254.35,-269"/>
<polygon fill="#999999" stroke="#999999" points="254.35,-272.5 264.35,-269 254.35,-265.5 254.35,-272.5"/>
</g>
<!-- 1e7ed196a6f2484886846d05b8a1d889 -->
<g id="node4" class="node">
<title>1e7ed196a6f2484886846d05b8a1d889</title>
<polygon fill="#1874cd" stroke="black" points="453.4,-168.6 266.2,-168.6 266.2,-53.4 453.4,-53.4 453.4,-168.6"/>
<text text-anchor="start" x="318.18" y="-127.6" font-family="Sans-Serif" font-weight="bold" font-size="12.00" fill="white">Queue Level 3</text>
<text text-anchor="start" x="336.18" y="-118.45" font-family="Sans-Serif" font-size="9.00" fill="white">[Container]</text>
<text text-anchor="start" x="285.93" y="-95.5" font-family="Sans-Serif" font-size="10.00" fill="white">SJF queue based on time&#45;to&#45;treat</text>
</g>
<!-- f6857f416fb5439db98bc1170e6461d8&#45;&gt;1e7ed196a6f2484886846d05b8a1d889 -->
<g id="edge3" class="edge">
<title>f6857f416fb5439db98bc1170e6461d8&#45;&gt;1e7ed196a6f2484886846d05b8a1d889</title>
<path fill="none" stroke="#999999" stroke-dasharray="5,2" d="M118.35,-211.06C118.35,-165.97 118.35,-111 118.35,-111 118.35,-111 254.24,-111 254.24,-111"/>
<polygon fill="#999999" stroke="#999999" points="254.24,-114.5 264.24,-111 254.24,-107.5 254.24,-114.5"/>
</g>
<!-- 6c6f9776d36941a9bd005ecbaaaf71ff -->
<g id="node5" class="node">
<title>6c6f9776d36941a9bd005ecbaaaf71ff</title>
<path fill="#104e8b" stroke="black" d="M800.35,-326.6C800.35,-326.6 637.15,-326.6 637.15,-326.6 631.15,-326.6 625.15,-320.6 625.15,-314.6 625.15,-314.6 625.15,-223.4 625.15,-223.4 625.15,-217.4 631.15,-211.4 637.15,-211.4 637.15,-211.4 800.35,-211.4 800.35,-211.4 806.35,-211.4 812.35,-217.4 812.35,-223.4 812.35,-223.4 812.35,-314.6 812.35,-314.6 812.35,-320.6 806.35,-326.6 800.35,-326.6"/>
<text text-anchor="start" x="698.5" y="-285.6" font-family="Sans-Serif" font-weight="bold" font-size="12.00" fill="white">Doctor</text>
<text text-anchor="start" x="701.13" y="-276.45" font-family="Sans-Serif" font-size="9.00" fill="white">[Person]</text>
<text text-anchor="start" x="692.5" y="-253.5" font-family="Sans-Serif" font-size="10.00" fill="white">FCFS queue</text>
</g>
<!-- b583bec231284f619b739b90294891d6&#45;&gt;6c6f9776d36941a9bd005ecbaaaf71ff -->
<g id="edge4" class="edge">
<title>b583bec231284f619b739b90294891d6&#45;&gt;6c6f9776d36941a9bd005ecbaaaf71ff</title>
<path fill="none" stroke="#999999" stroke-dasharray="5,2" d="M453.8,-427C560.33,-427 719.35,-427 719.35,-427 719.35,-427 719.35,-338.45 719.35,-338.45"/>
<polygon fill="#999999" stroke="#999999" points="722.85,-338.45 719.35,-328.45 715.85,-338.45 722.85,-338.45"/>
</g>
<!-- cbebe00a8d7840f681cbf9678896ac8b&#45;&gt;6c6f9776d36941a9bd005ecbaaaf71ff -->
<g id="edge5" class="edge">
<title>cbebe00a8d7840f681cbf9678896ac8b&#45;&gt;6c6f9776d36941a9bd005ecbaaaf71ff</title>
<path fill="none" stroke="#999999" stroke-dasharray="5,2" d="M453.64,-269C453.64,-269 613.32,-269 613.32,-269"/>
<polygon fill="#999999" stroke="#999999" points="613.32,-272.5 623.32,-269 613.32,-265.5 613.32,-272.5"/>
<text text-anchor="start" x="480.4" y="-302.25" font-family="Sans-Serif" font-size="10.00" fill="#2d3436">Consensus among queues</text>
<text text-anchor="start" x="490.9" y="-288" font-family="Sans-Serif" font-size="10.00" fill="#2d3436">for position closest to</text>
<text text-anchor="start" x="507.03" y="-273.75" font-family="Sans-Serif" font-size="10.00" fill="#2d3436">front of queue</text>
</g>
<!-- 1e7ed196a6f2484886846d05b8a1d889&#45;&gt;6c6f9776d36941a9bd005ecbaaaf71ff -->
<g id="edge6" class="edge">
<title>1e7ed196a6f2484886846d05b8a1d889&#45;&gt;6c6f9776d36941a9bd005ecbaaaf71ff</title>
<path fill="none" stroke="#999999" stroke-dasharray="5,2" d="M453.8,-111C560.33,-111 719.35,-111 719.35,-111 719.35,-111 719.35,-199.55 719.35,-199.55"/>
<polygon fill="#999999" stroke="#999999" points="715.85,-199.55 719.35,-209.55 722.85,-199.55 715.85,-199.55"/>
</g>
</g>
</svg>
